# xmcd CD database file
#
# Track frame offsets:
#	150
#	20517
#	37352
#	55375
#	72750
#	98790
#	115980
#	134125
#	148440
#	167250
#	186757
#
# Disc length: 2696 seconds
#
# Revision: 0
# Processed by: cddbd v1.5.1PL0 Copyright (c) Steve Scherf et al.
# Submitted via: CDex 1.51
#
DISCID=a90a860b
DTITLE=Various Artist - SYNCHRONICITY
DYEAR=1999
DGENRE=Hip Hop
TTITLE0=Straight Outta Nippon - Rappagariya, Sha Self
TTITLE1=Poetry In Motion - El Da Sensei, Prince Poetry, Low Damage
TTITLE2=1999 (そんな感じ) - K DUB SHINE, SAGE
TTITLE3=イルマナグ (病んだ視点) - Akeem, P-Original
TTITLE4=Go Head Now - Matt Fingaz, Will Pack, Craig. G., DJ Yas
TTITLE5=VIBE - Hab I Scream, E.G.G. Man, DJ Spinna
TTITLE6=Kings Of Da Hill - Mike Zoot, Consequence, Inovader
TTITLE7=Get Live - P-Dap, F.T., DJ Hazu
TTITLE8=Culture Universal - Zeebra, Sphere Of Influence, Nick Wiz
TTITLE9=Boyz 2 Men - Wizdom Life, Punch-N-Words, DJ Maki The Magic
TTITLE10=Great Expectations - Talib Kweli, DJ Celory
EXTD=YEAR: 1999
EXTT0=
EXTT1=
EXTT2=
EXTT3=
EXTT4=
EXTT5=
EXTT6=
EXTT7=
EXTT8=
EXTT9=
EXTT10=
PLAYORDER=
